# xmcd
#
# Track frame offsets:
#	150
#	11087
#	21714
#	32592
#	47710
#	60317
#	69483
#	86859
#	95772
#	105062
#	116012
#	130412
#	138003
#	145875
#	162603
#	174564
#	187676
#
# Disc length: 2790 seconds
#
# Revision: 0
# Processed by: cddbd v1.5.2PL0 Copyright (c) Steve Scherf et al.
# Submitted via: dBpowerAMP V4.0
#
DISCID=e70ae411
DTITLE=Blues Addict - A long distance run
DYEAR=1900
DGENRE=Blues
TTITLE0=Mighty Steady Blues
TTITLE1=I play the blues
TTITLE2=Feeling high
TTITLE3=An angel on your road
TTITLE4=Mister me
TTITLE5=Blacksnake
TTITLE6=My darling
TTITLE7=Born for good luck
TTITLE8=Hangover
TTITLE9=Keep on moving on
TTITLE10=Magical
TTITLE11=Blues for Larry Garner
TTITLE12=Can't stop playing
TTITLE13=Burkha
TTITLE14=One eyed wino
TTITLE15=Deep dark water
TTITLE16=Long distance run and bonus
EXTD=
EXTT0=
EXTT1=
EXTT2=
EXTT3=
EXTT4=
EXTT5=
EXTT6=
EXTT7=
EXTT8=
EXTT9=
EXTT10=
EXTT11=
EXTT12=
EXTT13=
EXTT14=
EXTT15=
EXTT16=
PLAYORDER=
